#!OML:ASF H:\LiuWeirdWalks\Patient Classification 1\Patient 1\Session 1\male.ASF
:FULLY-SPECIFIED
:DEGREES
348
root 3.27419 17.8521 34.3612 -0.310117 11.0669 0.670175
lowerback 1.77576 1.97071 -2.87365
upperback 1.24021 2.58987 -0.950885
thorax 0.193528 1.28268 0.591652
lowerneck -22.1621 -2.9962 -0.653117
upperneck 11.1512 -3.65255 -1.03754
head 6.98425 -1.87973 -0.679639
rclavicle 1.28962e-014 -2.26615e-014
rhumerus -22.1499 -18.7727 -74.1054
rradius 32.611
rwrist -1.14378
rhand -8.24349 1.77071
rfingers 7.12502
rthumb 17.6745 -27.446
lclavicle 1.28962e-014 -2.26615e-014
lhumerus -29.3556 -0.442481 79.795
lradius 49.7996
lwrist 17.8394
lhand -18.438 -3.97563
lfingers 7.12502
lthumb 7.84764 25.8587
rfemur -12.5004 -11.1546 15.7593
rtibia 46.2745
rfoot -16.5322 -17.8228
rtoes 0.164542
lfemur -14.1144 -2.26207 -22.7356
ltibia 31.0857
lfoot -9.13558 10.4021
ltoes -4.92233
349
root 3.28736 17.8493 34.3742 -0.0821537 10.9232 1.20257
lowerback 1.67534 1.91781 -3.42335
upperback 1.19858 2.51526 -1.02851
thorax 0.189929 1.24295 0.822567
lowerneck -22.3332 -2.98086 -0.653441
upperneck 11.254 -3.62458 -1.06648
head 7.04506 -1.86898 -0.689802
rclavicle 5.58585e-014 -9.14409e-015
rhumerus -22.2997 -19.2364 -74.2453
rradius 32.1338
rwrist -0.775729
rhand -8.48898 1.81116
rfingers 7.12502
rthumb 17.4383 -27.4266
lclavicle 5.58585e-014 -9.14409e-015
lhumerus -28.946 -0.958621 79.5354
lradius 50.8707
lwrist 18.1581
lhand -18.4565 -4.08532
lfingers 7.12502
lthumb 7.82978 25.7497
rfemur -12.8953 -11.2395 15.1028
rtibia 46.4393
rfoot -17.0113 -18.0762
rtoes 0.18979
lfemur -14.0994 -2.26448 -23.3412
ltibia 30.9103
lfoot -9.1145 10.497
ltoes -4.92029
350
root 3.29674 17.8483 34.389 -0.212939 10.7443 0.894442
lowerback 1.76064 1.87745 -3.15278
upperback 1.21256 2.46142 -0.871919
thorax 0.162787 1.2172 0.830305
lowerneck -22.5008 -2.96077 -0.640873
upperneck 11.3387 -3.59063 -1.11577
head 7.09881 -1.85683 -0.707667
rclavicle -1.07095e-014 8.74653e-015
rhumerus -22.4707 -19.7259 -74.372
rradius 31.6677
rwrist -0.564435
rhand -8.80284 1.82249
rfingers 7.12502
rthumb 17.1362 -27.4418
lclavicle -1.07095e-014 8.74653e-015
lhumerus -28.5263 -1.50398 79.2518
lradius 51.8379
lwrist 18.4413
lhand -18.5357 -4.20519
lfingers 7.12502
lthumb 7.75328 25.6327
rfemur -12.9346 -11.1315 15.3901
rtibia 46.2785
rfoot -17.5497 -18.6532
rtoes -0.136213
lfemur -13.9629 -2.22572 -23.0119
ltibia 30.9456
lfoot -9.23668 10.5901
ltoes -4.93229
351
root 3.30429 17.8482 34.4043 -0.432711 10.5477 0.344789
lowerback 1.87126 1.82889 -2.67368
upperback 1.2551 2.40005 -0.632914
thorax 0.155638 1.18806 0.805923
lowerneck -22.6931 -2.92038 -0.609101
upperneck 11.4227 -3.53028 -1.19196
head 7.15562 -1.83389 -0.734565
rclavicle 3.57812e-014 -7.55382e-015
rhumerus -22.633 -20.2064 -74.4946
rradius 31.214
rwrist -0.47757
rhand -9.14101 1.79956
rfingers 7.12502
rthumb 16.8107 -27.4927
lclavicle 3.57812e-014 -7.55382e-015
lhumerus -28.0884 -1.99464 78.9427
lradius 52.6991
lwrist 18.7044
lhand -18.6511 -4.3256
lfingers 7.12502
lthumb 7.64188 25.5163
rfemur -12.837 -10.93 15.9586
rtibia 45.8564
rfoot -18.0909 -19.4017
rtoes -0.781347
lfemur -13.8488 -2.17325 -22.4071
ltibia 31.1408
lfoot -9.44586 10.6934
ltoes -4.95391
352
root 3.30894 17.849 34.4207 -0.802539 10.3428 -0.567206
lowerback 2.06393 1.78758 -1.8386
upperback 1.32757 2.35365 -0.296768
thorax 0.142359 1.16805 0.679571
lowerneck -22.8953 -2.88526 -0.572001
upperneck 11.4959 -3.47744 -1.27399
head 7.21029 -1.81498 -0.765163
rclavicle 3.2638e-014 4.77083e-015
rhumerus -22.8191 -20.7504 -74.5905
rradius 30.7635
rwrist -0.480378
rhand -9.48144 1.74335
rfingers 7.12502
rthumb 16.483 -27.5765
lclavicle 3.2638e-014 4.77083e-015
lhumerus -27.6264 -2.44937 78.6119
lradius 53.4557
lwrist 18.8952
lhand -18.7674 -4.43746
lfingers 7.12502
lthumb 7.52965 25.4085
rfemur -12.5711 -10.6412 16.9344
rtibia 45.2317
rfoot -18.6359 -20.291
rtoes -1.63343
lfemur -13.6721 -2.10006 -21.3931
ltibia 31.4153
lfoot -9.71833 10.7732
ltoes -4.95965
353
root 3.31337 17.8495 34.437 -1.10179 10.1482 -1.34774
lowerback 2.22247 1.74556 -1.1124
upperback 1.38215 2.30803 -0.00911332
thorax 0.127087 1.14829 0.564956
lowerneck -23.0759 -2.85096 -0.527105
upperneck 11.5602 -3.42909 -1.35233
head 7.25853 -1.79761 -0.795871
rclavicle 3.29237e-015 -7.95139e-016
rhumerus -23.0542 -21.3338 -74.6595
rradius 30.3085
rwrist -0.544665
rhand -9.83209 1.68631
rfingers 7.12502
rthumb 16.1453 -27.6612
lclavicle 3.29237e-015 -7.95139e-016
lhumerus -27.172 -2.8451 78.2534
lradius 54.1131
lwrist 19.0221
lhand -18.8638 -4.56045
lfingers 7.12502
lthumb 7.43662 25.2888
rfemur -12.3518 -10.3682 17.7694
rtibia 44.5535
rfoot -19.1821 -21.1628
rtoes -2.49153
lfemur -13.5139 -2.03885 -20.5202
ltibia 31.6319
lfoot -9.95528 10.8386
ltoes -4.93344
354
root 3.3181 17.8507 34.4523 -1.17351 9.98364 -1.60161
lowerback 2.26558 1.71222 -0.889614
upperback 1.39412 2.26734 0.120894
thorax 0.119249 1.12878 0.57314
lowerneck -23.2617 -2.83234 -0.504275
upperneck 11.6526 -3.39983 -1.40174
head 7.31783 -1.78756 -0.81636
rclavicle -2.52332e-014 2.98177e-015
rhumerus -23.3386 -21.9767 -74.6845
rradius 29.8436
rwrist -0.610415
rhand -10.1459 1.60331
rfingers 7.12502
rthumb 15.8431 -27.7685
lclavicle -2.52332e-014 2.98177e-015
lhumerus -26.7135 -3.17708 77.8836
lradius 54.6596
lwrist 19.0918
lhand -18.9371 -4.67352
lfingers 7.12502
lthumb 7.36589 25.1783
rfemur -12.3251 -10.1557 18.0326
rtibia 43.8968
rfoot -19.7087 -21.9071
rtoes -3.28235
lfemur -13.4535 -2.02103 -20.2285
ltibia 31.7415
lfoot -10.107 10.9218
ltoes -4.87008
355
root 3.32322 17.852 34.4672 -1.08097 9.86193 -1.4594
lowerback 2.2184 1.69223 -1.01723
upperback 1.38084 2.23879 0.119788
thorax 0.127722 1.11376 0.645195
lowerneck -23.4655 -2.84358 -0.518188
upperneck 11.7702 -3.40596 -1.40997
head 7.38957 -1.79201 -0.822482
rclavicle -7.95139e-016 1.98785e-016
rhumerus -23.6698 -22.6853 -74.665
rradius 29.3732
rwrist -0.694961
rhand -10.4438 1.52497
rfingers 7.12502
rthumb 15.5562 -27.8694
lclavicle -7.95139e-016 1.98785e-016
lhumerus -26.2363 -3.50797 77.5099
lradius 55.1062
lwrist 19.1035
lhand -18.9758 -4.75596
lfingers 7.12502
lthumb 7.32846 25.0971
rfemur -12.4528 -10.0242 17.8577
rtibia 43.3051
rfoot -20.2615 -22.4887
rtoes -3.9627
lfemur -13.4354 -2.04568 -20.3791
ltibia 31.7165
lfoot -10.1791 11.0087
ltoes -4.74787
356
root 3.32859 17.8536 34.4815 -0.916023 9.74982 -1.15919
lowerback 2.14762 1.68315 -1.26838
upperback 1.33761 2.22276 0.0591089
thorax 0.116319 1.10473 0.725238
lowerneck -23.6442 -2.86755 -0.543947
upperneck 11.8978 -3.4288 -1.40058
head 7.46119 -1.8032 -0.822775
rclavicle -2.42766e-014 1.98785e-016
rhumerus -24.0576 -23.4188 -74.6013
rradius 28.8867
rwrist -0.803402
rhand -10.7431 1.47729
rfingers 7.12502
rthumb 15.268 -27.9392
lclavicle -2.42766e-014 1.98785e-016
lhumerus -25.7761 -3.82512 77.1369
lradius 55.4539
lwrist 19.0964
lhand -19.0149 -4.8486
lfingers 7.12502
lthumb 7.29073 25.0058
rfemur -12.6823 -9.90781 17.5141
rtibia 42.7706
rfoot -20.8238 -22.9379
rtoes -4.49934
lfemur -13.4197 -2.08933 -20.7044
ltibia 31.5791
lfoot -10.187 11.0979
ltoes -4.59724
357
root 3.33342 17.8549 34.4956 -0.712889 9.65041 -0.786473
lowerback 2.03976 1.66899 -1.59774
upperback 1.29784 2.19969 -0.0154371
thorax 0.127172 1.0917 0.836171
lowerneck -23.8389 -2.88685 -0.569813
upperneck 12.0265 -3.44408 -1.39625
head 7.53578 -1.81129 -0.824082
rclavicle -1.76421e-015 -2.78299e-015
rhumerus -24.4392 -24.1547 -74.5098
rradius 28.3914
rwrist -0.905945
rhand -11.0188 1.42321
rfingers 7.12502
rthumb 15.0024 -28.0133
lclavicle -1.76421e-015 -2.78299e-015
lhumerus -25.3009 -4.1168 76.7689
lradius 55.6951
lwrist 19.0761
lhand -19.053 -4.9065
lfingers 7.12502
lthumb 7.25395 24.9492
rfemur -12.9638 -9.81062 17.0956
rtibia 42.2434
rfoot -21.3581 -23.2555
rtoes -4.94126
lfemur -13.4187 -2.13825 -21.1086
ltibia 31.4001
lfoot -10.1772 11.18
ltoes -4.42678
358
root 3.33727 17.8559 34.5101 -0.487457 9.56251 -0.398556
lowerback 1.90688 1.6561 -1.9381
upperback 1.24991 2.17933 -0.0971021
thorax 0.143705 1.08005 0.946488
lowerneck -24.0109 -2.91124 -0.597705
upperneck 12.1311 -3.46586 -1.39173
head 7.59876 -1.82253 -0.825196
rclavicle -6.21202e-015 3.37934e-015
rhumerus -24.8498 -24.8937 -74.3814
rradius 27.8827
rwrist -0.990483
rhand -11.2837 1.41547
rfingers 7.12502
rthumb 14.7472 -28.0399
lclavicle -6.21202e-015 3.37934e-015
lhumerus -24.8374 -4.41321 76.4075
lradius 55.848
lwrist 19.0457
lhand -19.0979 -4.94562
lfingers 7.12502
lthumb 7.21066 24.9115
rfemur -13.2634 -9.73247 16.6663
rtibia 41.6671
rfoot -21.7858 -23.4573
rtoes -5.33092
lfemur -13.4552 -2.1831 -21.5269
ltibia 31.2498
lfoot -10.1916 11.2566
ltoes -4.24886
359
root 3.34 17.8566 34.5246 -0.307295 9.46947 -0.169695
lowerback 1.80258 1.80167 -1.84169
upperback 1.24538 2.37716 -0.267659
thorax 0.202407 1.17956 0.717888
lowerneck -24.3306 -3.16463 -0.86085
upperneck 12.2772 -3.75319 -1.18108
head 7.70619 -1.94962 -0.75826
rclavicle 3.91357e-015 -3.18055e-015
rhumerus -25.3894 -26.1365 -74.0952
rradius 27.4283
rwrist -1.04131
rhand -11.5285 1.42092
rfingers 7.12502
rthumb 14.5113 -28.0516
lclavicle 3.91357e-015 -3.18055e-015
lhumerus -24.1246 -5.19866 76.1242
lradius 55.8865
lwrist 19.0713
lhand -19.1532 -4.95553
lfingers 7.12502
lthumb 7.15727 24.9034
rfemur -13.5306 -9.63491 16.4198
rtibia 41.0254
rfoot -22.0596 -23.5871
rtoes -5.70993
lfemur -13.4978 -2.21215 -21.7652
ltibia 31.1525
lfoot -10.2448 11.3276
ltoes -4.07698
360
root 3.34034 17.8573 34.5399 -0.267231 9.37648 -0.281216
lowerback 1.76853 1.90292 -1.50189
upperback 1.25855 2.51772 -0.30036
thorax 0.247168 1.25153 0.49393
lowerneck -24.5831 -3.34846 -1.04181
upperneck 12.3524 -3.95995 -1.04848
head 7.77732 -2.04224 -0.718222
rclavicle -2.77305e-014 -1.98785e-015
rhumerus -25.9075 -27.2091 -73.8167
rradius 26.9622
rwrist -1.04548
rhand -11.7311 1.40741
rfingers 7.12502
rthumb 14.3161 -28.079
lclavicle -2.77305e-014 -1.98785e-015
lhumerus -23.4966 -5.82818 75.8303
lradius 55.9085
lwrist 19.1082
lhand -19.2297 -4.85196
lfingers 7.12502
lthumb 7.08347 25.0095
rfemur -13.6722 -9.48249 16.5468
rtibia 40.3117
rfoot -22.1452 -23.6722
rtoes -6.1204
lfemur -13.478 -2.21484 -21.6236
ltibia 31.1235
lfoot -10.3579 11.3772
ltoes -3.90714
361
root 3.34009 17.8573 34.5549 -0.23998 9.28508 -0.432749
lowerback 1.77089 2.16997 -0.834039
upperback 1.29538 2.88324 -0.458526
thorax 0.317205 1.43864 -0.0449352
lowerneck -24.9136 -3.77611 -1.47634
upperneck 12.4454 -4.44729 -0.697395
head 7.87822 -2.2564 -0.6051
rclavicle -2.48605e-014 1.78906e-015
rhumerus -26.6084 -28.7673 -73.3519
rradius 26.5691
rwrist -1.00763
rhand -11.8988 1.35957
rfingers 7.12502
rthumb 14.1545 -28.1383
lclavicle -2.48605e-014 1.78906e-015
lhumerus -22.6384 -6.97111 75.6123
lradius 55.8385
lwrist 19.1957
lhand -19.2789 -4.72816
lfingers 7.12502
lthumb 7.03595 25.1349
rfemur -13.8091 -9.32666 16.7123
rtibia 39.6254
rfoot -21.9832 -23.6305
rtoes -6.54222
lfemur -13.4489 -2.20512 -21.4373
ltibia 31.0932
lfoot -10.4731 11.4178
ltoes -3.75604
